<?xml version="1.0" standalone="no"?>
<!DOCTYPE svg PUBLIC "-//W3C//DTD SVG 20010904//EN"
 "http://www.w3.org/TR/2001/REC-SVG-20010904/DTD/svg10.dtd">
<svg version="1.0" xmlns="http://www.w3.org/2000/svg"
 width="25.000000pt" height="25.000000pt" viewBox="0 0 25.000000 25.000000"
 preserveAspectRatio="xMidYMid meet">
<metadata>
Created by potrace 1.16, written by Peter Selinger 2001-2019
</metadata>
<g transform="translate(0.000000,25.000000) scale(0.100000,-0.100000)"
fill="#000000" stroke="none">
<path d="M38 200 c-26 -26 -29 -36 -23 -63 3 -18 7 -44 8 -59 2 -21 7 -28 22
-28 29 0 42 12 48 40 4 21 4 20 6 -7 1 -40 27 -58 92 -66 l46 -6 -1 50 c-1 40
-6 55 -23 69 -12 10 -20 20 -17 23 12 12 -9 48 -36 62 -47 24 -88 19 -122 -15z"/>
</g>
</svg>
