<?xml version="1.0" standalone="no"?>
<!DOCTYPE svg PUBLIC "-//W3C//DTD SVG 20010904//EN"
 "http://www.w3.org/TR/2001/REC-SVG-20010904/DTD/svg10.dtd">
<svg version="1.0" xmlns="http://www.w3.org/2000/svg"
 width="32.000000pt" height="32.000000pt" viewBox="0 0 32.000000 32.000000"
 preserveAspectRatio="xMidYMid meet">
<metadata>
Created by potrace 1.16, written by Peter Selinger 2001-2019
</metadata>
<g transform="translate(0.000000,32.000000) scale(0.100000,-0.100000)"
fill="#000000" stroke="none">
<path d="M52 278 c-17 -17 -15 -100 3 -124 22 -29 18 -39 -18 -55 -23 -10 -33
-22 -35 -42 -3 -27 -3 -27 60 -27 61 1 64 2 85 35 l21 34 -21 14 c-18 12 -19
17 -10 29 7 8 15 39 19 70 6 50 4 57 -14 67 -27 15 -75 14 -90 -1z"/>
<path d="M193 263 c-15 -13 -22 -35 -27 -80 -5 -60 -5 -62 22 -71 l27 -9 -31
-16 c-17 -9 -34 -25 -37 -37 -5 -19 -1 -20 84 -20 82 0 89 2 89 20 0 12 -13
26 -32 37 l-33 17 26 9 c24 9 26 13 21 61 -6 74 -21 100 -58 104 -19 2 -39 -4
-51 -15z"/>
</g>
</svg>
