<?xml version="1.0" standalone="no"?>
<!DOCTYPE svg PUBLIC "-//W3C//DTD SVG 20010904//EN"
 "http://www.w3.org/TR/2001/REC-SVG-20010904/DTD/svg10.dtd">
<svg version="1.0" xmlns="http://www.w3.org/2000/svg"
 width="32.000000pt" height="32.000000pt" viewBox="0 0 32.000000 32.000000"
 preserveAspectRatio="xMidYMid meet">
<metadata>
Created by potrace 1.16, written by Peter Selinger 2001-2019
</metadata>
<g transform="translate(0.000000,32.000000) scale(0.100000,-0.100000)"
fill="#000000" stroke="none">
<path d="M90 254 c-53 -44 -73 -74 -51 -74 7 0 11 -27 11 -70 l0 -70 110 0
110 0 0 69 c0 46 4 71 13 74 10 3 10 9 0 26 -7 11 -13 30 -13 41 0 16 -6 20
-29 18 -17 -1 -38 5 -49 15 -28 25 -41 21 -102 -29z"/>
</g>
</svg>
