<?xml version="1.0" standalone="no"?>
<!DOCTYPE svg PUBLIC "-//W3C//DTD SVG 20010904//EN"
 "http://www.w3.org/TR/2001/REC-SVG-20010904/DTD/svg10.dtd">
<svg version="1.0" xmlns="http://www.w3.org/2000/svg"
 width="32.000000pt" height="32.000000pt" viewBox="0 0 32.000000 32.000000"
 preserveAspectRatio="xMidYMid meet">
<metadata>
Created by potrace 1.16, written by Peter Selinger 2001-2019
</metadata>
<g transform="translate(0.000000,32.000000) scale(0.100000,-0.100000)"
fill="#000000" stroke="none">
<path d="M130 275 c-7 -8 -25 -15 -41 -15 -25 0 -29 -4 -29 -29 0 -16 -7 -34
-15 -41 -19 -16 -19 -44 0 -60 8 -7 15 -25 15 -41 0 -25 4 -29 29 -29 16 0 34
-7 41 -15 7 -8 20 -15 30 -15 10 0 23 7 30 15 7 8 25 15 41 15 25 0 29 4 29
29 0 16 7 34 15 41 19 16 19 44 0 60 -8 7 -15 25 -15 41 0 25 -4 29 -29 29
-16 0 -34 7 -41 15 -7 8 -20 15 -30 15 -10 0 -23 -7 -30 -15z"/>
</g>
</svg>
