<?xml version="1.0" standalone="no"?>
<!DOCTYPE svg PUBLIC "-//W3C//DTD SVG 20010904//EN"
 "http://www.w3.org/TR/2001/REC-SVG-20010904/DTD/svg10.dtd">
<svg version="1.0" xmlns="http://www.w3.org/2000/svg"
 width="25.000000pt" height="25.000000pt" viewBox="0 0 25.000000 25.000000"
 preserveAspectRatio="xMidYMid meet">
<metadata>
Created by potrace 1.16, written by Peter Selinger 2001-2019
</metadata>
<g transform="translate(0.000000,25.000000) scale(0.100000,-0.100000)"
fill="#000000" stroke="none">
<path d="M86 199 c-16 -19 -26 -43 -26 -63 0 -18 -7 -41 -15 -52 -8 -10 -15
-22 -15 -26 0 -5 43 -8 95 -8 52 0 95 3 95 8 0 4 -7 16 -15 26 -8 11 -15 34
-15 52 0 34 -41 94 -65 94 -7 0 -25 -14 -39 -31z"/>
</g>
</svg>
