<?xml version="1.0" standalone="no"?>
<!DOCTYPE svg PUBLIC "-//W3C//DTD SVG 20010904//EN"
 "http://www.w3.org/TR/2001/REC-SVG-20010904/DTD/svg10.dtd">
<svg version="1.0" xmlns="http://www.w3.org/2000/svg"
 width="25.000000pt" height="25.000000pt" viewBox="0 0 25.000000 25.000000"
 preserveAspectRatio="xMidYMid meet">
<metadata>
Created by potrace 1.16, written by Peter Selinger 2001-2019
</metadata>
<g transform="translate(0.000000,25.000000) scale(0.100000,-0.100000)"
fill="#000000" stroke="none">
<path d="M86 214 c-20 -19 -21 -64 -2 -90 15 -20 5 -44 -19 -44 -15 0 -45 -32
-45 -48 0 -8 31 -12 105 -12 81 0 105 3 105 13 0 16 -31 47 -47 47 -22 0 -32
25 -17 44 32 44 8 106 -41 106 -13 0 -31 -7 -39 -16z"/>
</g>
</svg>
