<?xml version="1.0" standalone="no"?>
<!DOCTYPE svg PUBLIC "-//W3C//DTD SVG 20010904//EN"
 "http://www.w3.org/TR/2001/REC-SVG-20010904/DTD/svg10.dtd">
<svg version="1.0" xmlns="http://www.w3.org/2000/svg"
 width="32.000000pt" height="32.000000pt" viewBox="0 0 32.000000 32.000000"
 preserveAspectRatio="xMidYMid meet">
<metadata>
Created by potrace 1.16, written by Peter Selinger 2001-2019
</metadata>
<g transform="translate(0.000000,32.000000) scale(0.100000,-0.100000)"
fill="#000000" stroke="none">
<path d="M140 290 c0 -5 -7 -7 -16 -3 -9 3 -20 0 -25 -8 -4 -8 -16 -14 -26
-14 -11 0 -18 -7 -18 -18 0 -10 -6 -22 -14 -26 -8 -5 -11 -16 -8 -24 3 -8 0
-20 -6 -26 -8 -8 -8 -14 0 -22 6 -6 9 -18 6 -26 -3 -8 0 -19 8 -24 8 -4 14
-16 14 -26 0 -11 7 -18 18 -18 10 0 22 -6 26 -14 5 -8 16 -11 24 -8 9 3 17 1
19 -5 3 -8 11 -9 24 -3 10 4 25 7 33 6 8 -1 18 3 22 11 4 7 16 13 26 13 11 0
18 7 18 18 0 10 6 22 14 26 8 5 11 16 8 24 -3 8 0 20 6 26 8 8 8 14 0 22 -6 6
-9 18 -6 26 3 8 0 19 -8 24 -8 4 -14 16 -14 26 0 11 -7 18 -18 18 -10 0 -22 6
-26 14 -5 8 -16 11 -25 8 -8 -3 -18 -2 -21 3 -8 13 -35 13 -35 0z"/>
</g>
</svg>
